<?xml version="1.0" ?><!DOCTYPE svg  PUBLIC '-//W3C//DTD SVG 1.1//EN'  'http://www.w3.org/Graphics/SVG/1.1/DTD/svg11.dtd'><svg enable-background="new 0 0 500 500" height="500px" id="Layer_1" version="1.1" viewBox="0 0 500 500" width="500px" xml:space="preserve" xmlns="http://www.w3.org/2000/svg" xmlns:xlink="http://www.w3.org/1999/xlink"><path clip-rule="evenodd" d="M31.949,410.264c50.698,31.348,109.576,48.702,167.716,48.702  c25.615,0,50.698-2.633,74.957-9.086c16.717-4.719,29.891-18.437,29.891-36.341c0-10.805-4.719-20.617-12.261-27.254h3.175  c20.079,0,36.345-16.267,36.345-36.346c0-20.078-16.266-36.34-36.345-36.34h18.172c20.079,0,36.34-16.262,36.34-36.341  s-16.261-36.344-36.34-36.344h118.112c20.078,0,36.34-16.262,36.34-36.34c0-20.079-16.262-36.343-36.34-36.343H224.465  c-10.08,0-18.17-8.18-18.17-18.17c0-1.723,0.275-3.365,0.728-4.908l20.895-51.426c2.457-4.906,3.913-10.442,3.913-16.351  c0-20.079-16.264-36.342-36.343-36.342c-15.083,0-28.071,9.264-33.618,22.35c-30.434,58.968-67.777,106.214-129.92,139.281V410.264z  " fill="#010101" fill-rule="evenodd"/></svg>